<mxfile host="app.diagrams.net" agent="Mozilla/5.0 (Windows NT 10.0; Win64; x64) AppleWebKit/537.36 (KHTML, like Gecko) Chrome/130.0.0.0 Safari/537.36" version="24.8.1">
  <diagram name="Page-1" id="UpC6zZpPmQkQuID6VJn3">
    <mxGraphModel dx="1687" dy="908" grid="1" gridSize="10" guides="1" tooltips="1" connect="1" arrows="1" fold="1" page="1" pageScale="1" pageWidth="850" pageHeight="1100" math="0" shadow="0">
      <root>
        <mxCell id="0" />
        <mxCell id="1" parent="0" />
        <mxCell id="8a59v6a5dDPZUjSK55P6-1" value="DEAN" style="rhombus;whiteSpace=wrap;html=1;" vertex="1" parent="1">
          <mxGeometry x="385" y="120" width="80" height="80" as="geometry" />
        </mxCell>
        <mxCell id="8a59v6a5dDPZUjSK55P6-127" style="edgeStyle=orthogonalEdgeStyle;rounded=0;orthogonalLoop=1;jettySize=auto;html=1;exitX=0;exitY=0;exitDx=0;exitDy=0;entryX=0.5;entryY=1;entryDx=0;entryDy=0;" edge="1" parent="1" source="8a59v6a5dDPZUjSK55P6-2" target="8a59v6a5dDPZUjSK55P6-47">
          <mxGeometry relative="1" as="geometry" />
        </mxCell>
        <mxCell id="8a59v6a5dDPZUjSK55P6-128" style="edgeStyle=orthogonalEdgeStyle;rounded=0;orthogonalLoop=1;jettySize=auto;html=1;exitX=1;exitY=0;exitDx=0;exitDy=0;entryX=0;entryY=1;entryDx=0;entryDy=0;" edge="1" parent="1" source="8a59v6a5dDPZUjSK55P6-2" target="8a59v6a5dDPZUjSK55P6-50">
          <mxGeometry relative="1" as="geometry" />
        </mxCell>
        <mxCell id="8a59v6a5dDPZUjSK55P6-130" style="edgeStyle=orthogonalEdgeStyle;rounded=0;orthogonalLoop=1;jettySize=auto;html=1;exitX=0.5;exitY=0;exitDx=0;exitDy=0;entryX=0.5;entryY=1;entryDx=0;entryDy=0;" edge="1" parent="1" source="8a59v6a5dDPZUjSK55P6-2" target="8a59v6a5dDPZUjSK55P6-44">
          <mxGeometry relative="1" as="geometry" />
        </mxCell>
        <mxCell id="8a59v6a5dDPZUjSK55P6-136" style="edgeStyle=orthogonalEdgeStyle;rounded=0;orthogonalLoop=1;jettySize=auto;html=1;exitX=0.25;exitY=0;exitDx=0;exitDy=0;entryX=1;entryY=1;entryDx=0;entryDy=0;" edge="1" parent="1" source="8a59v6a5dDPZUjSK55P6-2" target="8a59v6a5dDPZUjSK55P6-43">
          <mxGeometry relative="1" as="geometry" />
        </mxCell>
        <mxCell id="8a59v6a5dDPZUjSK55P6-2" value="INSTRUCTOR" style="rounded=0;whiteSpace=wrap;html=1;" vertex="1" parent="1">
          <mxGeometry x="640" y="145" width="120" height="30" as="geometry" />
        </mxCell>
        <mxCell id="8a59v6a5dDPZUjSK55P6-4" value="COLLEGE" style="rounded=0;whiteSpace=wrap;html=1;" vertex="1" parent="1">
          <mxGeometry x="60" y="145" width="120" height="30" as="geometry" />
        </mxCell>
        <mxCell id="8a59v6a5dDPZUjSK55P6-5" value="ADMINS" style="rhombus;whiteSpace=wrap;html=1;" vertex="1" parent="1">
          <mxGeometry x="80" y="280" width="80" height="80" as="geometry" />
        </mxCell>
        <mxCell id="8a59v6a5dDPZUjSK55P6-91" style="edgeStyle=orthogonalEdgeStyle;rounded=0;orthogonalLoop=1;jettySize=auto;html=1;entryX=1;entryY=0.5;entryDx=0;entryDy=0;" edge="1" parent="1" source="8a59v6a5dDPZUjSK55P6-6" target="8a59v6a5dDPZUjSK55P6-65">
          <mxGeometry relative="1" as="geometry" />
        </mxCell>
        <mxCell id="8a59v6a5dDPZUjSK55P6-92" style="edgeStyle=orthogonalEdgeStyle;rounded=0;orthogonalLoop=1;jettySize=auto;html=1;entryX=1;entryY=1;entryDx=0;entryDy=0;" edge="1" parent="1" source="8a59v6a5dDPZUjSK55P6-6" target="8a59v6a5dDPZUjSK55P6-66">
          <mxGeometry relative="1" as="geometry" />
        </mxCell>
        <mxCell id="8a59v6a5dDPZUjSK55P6-93" style="edgeStyle=orthogonalEdgeStyle;rounded=0;orthogonalLoop=1;jettySize=auto;html=1;entryX=1;entryY=0.5;entryDx=0;entryDy=0;" edge="1" parent="1" source="8a59v6a5dDPZUjSK55P6-6" target="8a59v6a5dDPZUjSK55P6-67">
          <mxGeometry relative="1" as="geometry" />
        </mxCell>
        <mxCell id="8a59v6a5dDPZUjSK55P6-96" style="edgeStyle=orthogonalEdgeStyle;rounded=0;orthogonalLoop=1;jettySize=auto;html=1;entryX=1;entryY=0;entryDx=0;entryDy=0;" edge="1" parent="1" source="8a59v6a5dDPZUjSK55P6-6" target="8a59v6a5dDPZUjSK55P6-68">
          <mxGeometry relative="1" as="geometry" />
        </mxCell>
        <mxCell id="8a59v6a5dDPZUjSK55P6-6" value="DEPT" style="rounded=0;whiteSpace=wrap;html=1;" vertex="1" parent="1">
          <mxGeometry x="90" y="490" width="60" height="30" as="geometry" />
        </mxCell>
        <mxCell id="8a59v6a5dDPZUjSK55P6-7" value="HAS" style="rhombus;whiteSpace=wrap;html=1;" vertex="1" parent="1">
          <mxGeometry x="350" y="477.5" width="50" height="55" as="geometry" />
        </mxCell>
        <mxCell id="8a59v6a5dDPZUjSK55P6-115" style="edgeStyle=orthogonalEdgeStyle;rounded=0;orthogonalLoop=1;jettySize=auto;html=1;exitX=1;exitY=0.5;exitDx=0;exitDy=0;entryX=0;entryY=0;entryDx=0;entryDy=0;" edge="1" parent="1" source="8a59v6a5dDPZUjSK55P6-8" target="8a59v6a5dDPZUjSK55P6-77">
          <mxGeometry relative="1" as="geometry" />
        </mxCell>
        <mxCell id="8a59v6a5dDPZUjSK55P6-117" style="edgeStyle=orthogonalEdgeStyle;rounded=0;orthogonalLoop=1;jettySize=auto;html=1;exitX=1;exitY=0;exitDx=0;exitDy=0;entryX=0;entryY=0.5;entryDx=0;entryDy=0;" edge="1" parent="1" source="8a59v6a5dDPZUjSK55P6-8" target="8a59v6a5dDPZUjSK55P6-75">
          <mxGeometry relative="1" as="geometry" />
        </mxCell>
        <mxCell id="8a59v6a5dDPZUjSK55P6-119" style="edgeStyle=orthogonalEdgeStyle;rounded=0;orthogonalLoop=1;jettySize=auto;html=1;exitX=0.75;exitY=1;exitDx=0;exitDy=0;entryX=0;entryY=0.5;entryDx=0;entryDy=0;" edge="1" parent="1" source="8a59v6a5dDPZUjSK55P6-8" target="8a59v6a5dDPZUjSK55P6-72">
          <mxGeometry relative="1" as="geometry" />
        </mxCell>
        <mxCell id="8a59v6a5dDPZUjSK55P6-120" style="edgeStyle=orthogonalEdgeStyle;rounded=0;orthogonalLoop=1;jettySize=auto;html=1;exitX=0.25;exitY=0;exitDx=0;exitDy=0;entryX=0.5;entryY=1;entryDx=0;entryDy=0;" edge="1" parent="1" source="8a59v6a5dDPZUjSK55P6-8" target="8a59v6a5dDPZUjSK55P6-71">
          <mxGeometry relative="1" as="geometry" />
        </mxCell>
        <mxCell id="8a59v6a5dDPZUjSK55P6-121" style="edgeStyle=orthogonalEdgeStyle;rounded=0;orthogonalLoop=1;jettySize=auto;html=1;exitX=0.75;exitY=0;exitDx=0;exitDy=0;entryX=0.5;entryY=1;entryDx=0;entryDy=0;" edge="1" parent="1" source="8a59v6a5dDPZUjSK55P6-8" target="8a59v6a5dDPZUjSK55P6-78">
          <mxGeometry relative="1" as="geometry" />
        </mxCell>
        <mxCell id="8a59v6a5dDPZUjSK55P6-122" style="edgeStyle=orthogonalEdgeStyle;rounded=0;orthogonalLoop=1;jettySize=auto;html=1;exitX=0;exitY=0.25;exitDx=0;exitDy=0;entryX=0.5;entryY=1;entryDx=0;entryDy=0;" edge="1" parent="1" source="8a59v6a5dDPZUjSK55P6-8" target="8a59v6a5dDPZUjSK55P6-70">
          <mxGeometry relative="1" as="geometry" />
        </mxCell>
        <mxCell id="8a59v6a5dDPZUjSK55P6-8" value="STUDENT" style="rounded=0;whiteSpace=wrap;html=1;" vertex="1" parent="1">
          <mxGeometry x="540" y="493.75" width="80" height="22.5" as="geometry" />
        </mxCell>
        <mxCell id="8a59v6a5dDPZUjSK55P6-9" value="EMPLOYS" style="rhombus;whiteSpace=wrap;html=1;" vertex="1" parent="1">
          <mxGeometry x="380" y="360" width="80" height="80" as="geometry" />
        </mxCell>
        <mxCell id="8a59v6a5dDPZUjSK55P6-10" value="CHAIR" style="rhombus;whiteSpace=wrap;html=1;" vertex="1" parent="1">
          <mxGeometry x="365" y="250" width="60" height="60" as="geometry" />
        </mxCell>
        <mxCell id="8a59v6a5dDPZUjSK55P6-11" value="OFFERS" style="rhombus;whiteSpace=wrap;html=1;" vertex="1" parent="1">
          <mxGeometry x="80" y="620" width="80" height="80" as="geometry" />
        </mxCell>
        <mxCell id="8a59v6a5dDPZUjSK55P6-97" style="edgeStyle=orthogonalEdgeStyle;rounded=0;orthogonalLoop=1;jettySize=auto;html=1;entryX=1;entryY=0.5;entryDx=0;entryDy=0;" edge="1" parent="1" source="8a59v6a5dDPZUjSK55P6-12" target="8a59v6a5dDPZUjSK55P6-64">
          <mxGeometry relative="1" as="geometry" />
        </mxCell>
        <mxCell id="8a59v6a5dDPZUjSK55P6-100" style="edgeStyle=orthogonalEdgeStyle;rounded=0;orthogonalLoop=1;jettySize=auto;html=1;" edge="1" parent="1" source="8a59v6a5dDPZUjSK55P6-12" target="8a59v6a5dDPZUjSK55P6-62">
          <mxGeometry relative="1" as="geometry" />
        </mxCell>
        <mxCell id="8a59v6a5dDPZUjSK55P6-101" style="edgeStyle=orthogonalEdgeStyle;rounded=0;orthogonalLoop=1;jettySize=auto;html=1;entryX=0.5;entryY=0;entryDx=0;entryDy=0;" edge="1" parent="1" source="8a59v6a5dDPZUjSK55P6-12" target="8a59v6a5dDPZUjSK55P6-61">
          <mxGeometry relative="1" as="geometry" />
        </mxCell>
        <mxCell id="8a59v6a5dDPZUjSK55P6-103" style="edgeStyle=orthogonalEdgeStyle;rounded=0;orthogonalLoop=1;jettySize=auto;html=1;entryX=0;entryY=0;entryDx=0;entryDy=0;" edge="1" parent="1" source="8a59v6a5dDPZUjSK55P6-12" target="8a59v6a5dDPZUjSK55P6-60">
          <mxGeometry relative="1" as="geometry" />
        </mxCell>
        <mxCell id="8a59v6a5dDPZUjSK55P6-12" value="COURSE" style="rounded=0;whiteSpace=wrap;html=1;" vertex="1" parent="1">
          <mxGeometry x="80" y="870" width="80" height="20" as="geometry" />
        </mxCell>
        <mxCell id="8a59v6a5dDPZUjSK55P6-13" value="SECS" style="rhombus;whiteSpace=wrap;html=1;" vertex="1" parent="1">
          <mxGeometry x="385" y="862.5" width="50" height="35" as="geometry" />
        </mxCell>
        <mxCell id="8a59v6a5dDPZUjSK55P6-104" style="edgeStyle=orthogonalEdgeStyle;rounded=0;orthogonalLoop=1;jettySize=auto;html=1;entryX=0;entryY=0.5;entryDx=0;entryDy=0;" edge="1" parent="1" source="8a59v6a5dDPZUjSK55P6-14" target="8a59v6a5dDPZUjSK55P6-51">
          <mxGeometry relative="1" as="geometry" />
        </mxCell>
        <mxCell id="8a59v6a5dDPZUjSK55P6-106" style="edgeStyle=orthogonalEdgeStyle;rounded=0;orthogonalLoop=1;jettySize=auto;html=1;entryX=0;entryY=0.5;entryDx=0;entryDy=0;" edge="1" parent="1" source="8a59v6a5dDPZUjSK55P6-14" target="8a59v6a5dDPZUjSK55P6-53">
          <mxGeometry relative="1" as="geometry" />
        </mxCell>
        <mxCell id="8a59v6a5dDPZUjSK55P6-107" style="edgeStyle=orthogonalEdgeStyle;rounded=0;orthogonalLoop=1;jettySize=auto;html=1;entryX=0;entryY=1;entryDx=0;entryDy=0;" edge="1" parent="1" source="8a59v6a5dDPZUjSK55P6-14" target="8a59v6a5dDPZUjSK55P6-54">
          <mxGeometry relative="1" as="geometry" />
        </mxCell>
        <mxCell id="8a59v6a5dDPZUjSK55P6-108" style="edgeStyle=orthogonalEdgeStyle;rounded=0;orthogonalLoop=1;jettySize=auto;html=1;entryX=0;entryY=0;entryDx=0;entryDy=0;" edge="1" parent="1" source="8a59v6a5dDPZUjSK55P6-14" target="8a59v6a5dDPZUjSK55P6-55">
          <mxGeometry relative="1" as="geometry" />
        </mxCell>
        <mxCell id="8a59v6a5dDPZUjSK55P6-109" style="edgeStyle=orthogonalEdgeStyle;rounded=0;orthogonalLoop=1;jettySize=auto;html=1;entryX=1;entryY=0.5;entryDx=0;entryDy=0;" edge="1" parent="1" source="8a59v6a5dDPZUjSK55P6-14" target="8a59v6a5dDPZUjSK55P6-57">
          <mxGeometry relative="1" as="geometry" />
        </mxCell>
        <mxCell id="8a59v6a5dDPZUjSK55P6-110" style="edgeStyle=orthogonalEdgeStyle;rounded=0;orthogonalLoop=1;jettySize=auto;html=1;entryX=0.5;entryY=0;entryDx=0;entryDy=0;" edge="1" parent="1" source="8a59v6a5dDPZUjSK55P6-14" target="8a59v6a5dDPZUjSK55P6-56">
          <mxGeometry relative="1" as="geometry" />
        </mxCell>
        <mxCell id="8a59v6a5dDPZUjSK55P6-14" value="SECTION" style="rounded=0;whiteSpace=wrap;html=1;" vertex="1" parent="1">
          <mxGeometry x="680" y="866.25" width="90" height="27.5" as="geometry" />
        </mxCell>
        <mxCell id="8a59v6a5dDPZUjSK55P6-15" value="TEACHES" style="rhombus;whiteSpace=wrap;html=1;" vertex="1" parent="1">
          <mxGeometry x="710" y="650" width="80" height="80" as="geometry" />
        </mxCell>
        <mxCell id="8a59v6a5dDPZUjSK55P6-126" style="edgeStyle=orthogonalEdgeStyle;rounded=0;orthogonalLoop=1;jettySize=auto;html=1;exitX=0;exitY=0;exitDx=0;exitDy=0;entryX=1;entryY=1;entryDx=0;entryDy=0;" edge="1" parent="1" source="8a59v6a5dDPZUjSK55P6-16" target="8a59v6a5dDPZUjSK55P6-79">
          <mxGeometry relative="1" as="geometry" />
        </mxCell>
        <mxCell id="8a59v6a5dDPZUjSK55P6-16" value="TAKES" style="rhombus;whiteSpace=wrap;html=1;" vertex="1" parent="1">
          <mxGeometry x="550" y="650" width="60" height="60" as="geometry" />
        </mxCell>
        <mxCell id="8a59v6a5dDPZUjSK55P6-19" value="" style="endArrow=none;html=1;rounded=0;entryX=0;entryY=0.5;entryDx=0;entryDy=0;" edge="1" parent="1" target="8a59v6a5dDPZUjSK55P6-1">
          <mxGeometry width="50" height="50" relative="1" as="geometry">
            <mxPoint x="180" y="159.41000000000003" as="sourcePoint" />
            <mxPoint x="240" y="159.41000000000003" as="targetPoint" />
            <Array as="points">
              <mxPoint x="220" y="159.41000000000003" />
            </Array>
          </mxGeometry>
        </mxCell>
        <mxCell id="8a59v6a5dDPZUjSK55P6-20" value="" style="endArrow=none;html=1;rounded=0;entryX=0;entryY=0.5;entryDx=0;entryDy=0;" edge="1" parent="1" target="8a59v6a5dDPZUjSK55P6-2">
          <mxGeometry width="50" height="50" relative="1" as="geometry">
            <mxPoint x="465" y="159.40999999999997" as="sourcePoint" />
            <mxPoint x="600" y="160.40999999999997" as="targetPoint" />
            <Array as="points">
              <mxPoint x="505" y="159.40999999999997" />
            </Array>
          </mxGeometry>
        </mxCell>
        <mxCell id="8a59v6a5dDPZUjSK55P6-21" value="" style="endArrow=none;html=1;rounded=0;exitX=0.5;exitY=0;exitDx=0;exitDy=0;" edge="1" parent="1" source="8a59v6a5dDPZUjSK55P6-15">
          <mxGeometry width="50" height="50" relative="1" as="geometry">
            <mxPoint x="749.41" y="335" as="sourcePoint" />
            <mxPoint x="749.41" y="175" as="targetPoint" />
            <Array as="points">
              <mxPoint x="749.41" y="285" />
            </Array>
          </mxGeometry>
        </mxCell>
        <mxCell id="8a59v6a5dDPZUjSK55P6-23" value="" style="endArrow=none;html=1;rounded=0;exitX=0.75;exitY=0;exitDx=0;exitDy=0;" edge="1" parent="1" source="8a59v6a5dDPZUjSK55P6-14">
          <mxGeometry width="50" height="50" relative="1" as="geometry">
            <mxPoint x="750" y="830" as="sourcePoint" />
            <mxPoint x="750" y="730" as="targetPoint" />
          </mxGeometry>
        </mxCell>
        <mxCell id="8a59v6a5dDPZUjSK55P6-24" value="" style="endArrow=none;html=1;rounded=0;exitX=1;exitY=0.5;exitDx=0;exitDy=0;" edge="1" parent="1" source="8a59v6a5dDPZUjSK55P6-13">
          <mxGeometry width="50" height="50" relative="1" as="geometry">
            <mxPoint x="590" y="879.4100000000001" as="sourcePoint" />
            <mxPoint x="680" y="879.4100000000001" as="targetPoint" />
          </mxGeometry>
        </mxCell>
        <mxCell id="8a59v6a5dDPZUjSK55P6-25" value="" style="endArrow=none;html=1;rounded=0;exitX=1;exitY=0.5;exitDx=0;exitDy=0;" edge="1" parent="1" source="8a59v6a5dDPZUjSK55P6-12">
          <mxGeometry width="50" height="50" relative="1" as="geometry">
            <mxPoint x="215" y="879.4100000000001" as="sourcePoint" />
            <mxPoint x="385" y="879.8200000000002" as="targetPoint" />
          </mxGeometry>
        </mxCell>
        <mxCell id="8a59v6a5dDPZUjSK55P6-26" value="" style="endArrow=none;html=1;rounded=0;exitX=0.5;exitY=0;exitDx=0;exitDy=0;" edge="1" parent="1" source="8a59v6a5dDPZUjSK55P6-12">
          <mxGeometry width="50" height="50" relative="1" as="geometry">
            <mxPoint x="119.41" y="770" as="sourcePoint" />
            <mxPoint x="119.41" y="700" as="targetPoint" />
          </mxGeometry>
        </mxCell>
        <mxCell id="8a59v6a5dDPZUjSK55P6-27" value="" style="endArrow=none;html=1;rounded=0;" edge="1" parent="1" source="8a59v6a5dDPZUjSK55P6-11">
          <mxGeometry width="50" height="50" relative="1" as="geometry">
            <mxPoint x="119" y="600" as="sourcePoint" />
            <mxPoint x="119.41" y="520" as="targetPoint" />
            <Array as="points">
              <mxPoint x="119.41" y="570" />
            </Array>
          </mxGeometry>
        </mxCell>
        <mxCell id="8a59v6a5dDPZUjSK55P6-29" value="" style="endArrow=none;html=1;rounded=0;exitX=0.5;exitY=0;exitDx=0;exitDy=0;" edge="1" parent="1" source="8a59v6a5dDPZUjSK55P6-6">
          <mxGeometry width="50" height="50" relative="1" as="geometry">
            <mxPoint x="120" y="450" as="sourcePoint" />
            <mxPoint x="119" y="360" as="targetPoint" />
            <Array as="points">
              <mxPoint x="119.41" y="400" />
            </Array>
          </mxGeometry>
        </mxCell>
        <mxCell id="8a59v6a5dDPZUjSK55P6-30" value="" style="endArrow=none;html=1;rounded=0;exitX=0.5;exitY=0;exitDx=0;exitDy=0;" edge="1" parent="1" source="8a59v6a5dDPZUjSK55P6-5">
          <mxGeometry width="50" height="50" relative="1" as="geometry">
            <mxPoint x="119" y="270" as="sourcePoint" />
            <mxPoint x="119.41" y="175" as="targetPoint" />
            <Array as="points">
              <mxPoint x="119.82" y="215" />
            </Array>
          </mxGeometry>
        </mxCell>
        <mxCell id="8a59v6a5dDPZUjSK55P6-31" value="" style="endArrow=none;html=1;rounded=0;entryX=0;entryY=0.5;entryDx=0;entryDy=0;" edge="1" parent="1" target="8a59v6a5dDPZUjSK55P6-7">
          <mxGeometry width="50" height="50" relative="1" as="geometry">
            <mxPoint x="150" y="504.40999999999997" as="sourcePoint" />
            <mxPoint x="240" y="504.40999999999997" as="targetPoint" />
          </mxGeometry>
        </mxCell>
        <mxCell id="8a59v6a5dDPZUjSK55P6-32" value="" style="endArrow=none;html=1;rounded=0;" edge="1" parent="1">
          <mxGeometry width="50" height="50" relative="1" as="geometry">
            <mxPoint x="400" y="504.40999999999997" as="sourcePoint" />
            <mxPoint x="540" y="505" as="targetPoint" />
          </mxGeometry>
        </mxCell>
        <mxCell id="8a59v6a5dDPZUjSK55P6-33" value="" style="endArrow=none;html=1;rounded=0;exitX=0.5;exitY=0;exitDx=0;exitDy=0;" edge="1" parent="1" source="8a59v6a5dDPZUjSK55P6-16">
          <mxGeometry width="50" height="50" relative="1" as="geometry">
            <mxPoint x="579.41" y="625" as="sourcePoint" />
            <mxPoint x="579.41" y="520" as="targetPoint" />
          </mxGeometry>
        </mxCell>
        <mxCell id="8a59v6a5dDPZUjSK55P6-34" value="" style="endArrow=none;html=1;rounded=0;exitX=0.5;exitY=0;exitDx=0;exitDy=0;" edge="1" parent="1" source="8a59v6a5dDPZUjSK55P6-14">
          <mxGeometry width="50" height="50" relative="1" as="geometry">
            <mxPoint x="650" y="790" as="sourcePoint" />
            <mxPoint x="580" y="710" as="targetPoint" />
          </mxGeometry>
        </mxCell>
        <mxCell id="8a59v6a5dDPZUjSK55P6-35" value="" style="endArrow=none;html=1;rounded=0;entryX=0.324;entryY=0.978;entryDx=0;entryDy=0;entryPerimeter=0;" edge="1" parent="1" target="8a59v6a5dDPZUjSK55P6-2">
          <mxGeometry width="50" height="50" relative="1" as="geometry">
            <mxPoint x="460" y="400" as="sourcePoint" />
            <mxPoint x="510" y="350" as="targetPoint" />
          </mxGeometry>
        </mxCell>
        <mxCell id="8a59v6a5dDPZUjSK55P6-36" value="" style="endArrow=none;html=1;rounded=0;entryX=0.079;entryY=0.861;entryDx=0;entryDy=0;entryPerimeter=0;" edge="1" parent="1" target="8a59v6a5dDPZUjSK55P6-2">
          <mxGeometry width="50" height="50" relative="1" as="geometry">
            <mxPoint x="425" y="280" as="sourcePoint" />
            <mxPoint x="574" y="124" as="targetPoint" />
          </mxGeometry>
        </mxCell>
        <mxCell id="8a59v6a5dDPZUjSK55P6-37" value="" style="endArrow=none;html=1;rounded=0;entryX=0;entryY=0.5;entryDx=0;entryDy=0;" edge="1" parent="1" target="8a59v6a5dDPZUjSK55P6-10">
          <mxGeometry width="50" height="50" relative="1" as="geometry">
            <mxPoint x="150" y="490" as="sourcePoint" />
            <mxPoint x="369" y="264" as="targetPoint" />
          </mxGeometry>
        </mxCell>
        <mxCell id="8a59v6a5dDPZUjSK55P6-38" value="" style="endArrow=none;html=1;rounded=0;entryX=0;entryY=0.5;entryDx=0;entryDy=0;" edge="1" parent="1" target="8a59v6a5dDPZUjSK55P6-9">
          <mxGeometry width="50" height="50" relative="1" as="geometry">
            <mxPoint x="150" y="490" as="sourcePoint" />
            <mxPoint x="375" y="290" as="targetPoint" />
          </mxGeometry>
        </mxCell>
        <mxCell id="8a59v6a5dDPZUjSK55P6-39" value="CPhone" style="ellipse;whiteSpace=wrap;html=1;" vertex="1" parent="1">
          <mxGeometry x="170" y="80" width="70" height="40" as="geometry" />
        </mxCell>
        <mxCell id="8a59v6a5dDPZUjSK55P6-90" style="edgeStyle=orthogonalEdgeStyle;rounded=0;orthogonalLoop=1;jettySize=auto;html=1;entryX=0.5;entryY=0;entryDx=0;entryDy=0;" edge="1" parent="1" source="8a59v6a5dDPZUjSK55P6-40" target="8a59v6a5dDPZUjSK55P6-4">
          <mxGeometry relative="1" as="geometry" />
        </mxCell>
        <mxCell id="8a59v6a5dDPZUjSK55P6-40" value="COffice" style="ellipse;whiteSpace=wrap;html=1;" vertex="1" parent="1">
          <mxGeometry x="85" y="30" width="70" height="40" as="geometry" />
        </mxCell>
        <mxCell id="8a59v6a5dDPZUjSK55P6-88" style="edgeStyle=orthogonalEdgeStyle;rounded=0;orthogonalLoop=1;jettySize=auto;html=1;entryX=0;entryY=0;entryDx=0;entryDy=0;" edge="1" parent="1" source="8a59v6a5dDPZUjSK55P6-41" target="8a59v6a5dDPZUjSK55P6-4">
          <mxGeometry relative="1" as="geometry" />
        </mxCell>
        <mxCell id="8a59v6a5dDPZUjSK55P6-41" value="CName" style="ellipse;whiteSpace=wrap;html=1;fontStyle=4" vertex="1" parent="1">
          <mxGeometry x="10" y="80" width="70" height="40" as="geometry" />
        </mxCell>
        <mxCell id="8a59v6a5dDPZUjSK55P6-42" value="CStartDate" style="ellipse;whiteSpace=wrap;html=1;" vertex="1" parent="1">
          <mxGeometry x="270" y="210" width="70" height="40" as="geometry" />
        </mxCell>
        <mxCell id="8a59v6a5dDPZUjSK55P6-43" value="Rank" style="ellipse;whiteSpace=wrap;html=1;" vertex="1" parent="1">
          <mxGeometry x="630" y="50" width="40" height="30" as="geometry" />
        </mxCell>
        <mxCell id="8a59v6a5dDPZUjSK55P6-44" value="IName" style="ellipse;whiteSpace=wrap;html=1;" vertex="1" parent="1">
          <mxGeometry x="690" y="100" width="40" height="30" as="geometry" />
        </mxCell>
        <mxCell id="8a59v6a5dDPZUjSK55P6-45" value="IOffice" style="ellipse;whiteSpace=wrap;html=1;" vertex="1" parent="1">
          <mxGeometry x="748" y="50" width="40" height="30" as="geometry" />
        </mxCell>
        <mxCell id="8a59v6a5dDPZUjSK55P6-47" value="Id" style="ellipse;whiteSpace=wrap;html=1;fontStyle=4" vertex="1" parent="1">
          <mxGeometry x="620" y="100" width="40" height="30" as="geometry" />
        </mxCell>
        <mxCell id="8a59v6a5dDPZUjSK55P6-50" value="IPhone" style="ellipse;whiteSpace=wrap;html=1;" vertex="1" parent="1">
          <mxGeometry x="750" y="100" width="40" height="30" as="geometry" />
        </mxCell>
        <mxCell id="8a59v6a5dDPZUjSK55P6-51" value="Secld" style="ellipse;whiteSpace=wrap;html=1;fontStyle=4" vertex="1" parent="1">
          <mxGeometry x="770" y="790" width="50" height="30" as="geometry" />
        </mxCell>
        <mxCell id="8a59v6a5dDPZUjSK55P6-53" value="SecNo" style="ellipse;whiteSpace=wrap;html=1;" vertex="1" parent="1">
          <mxGeometry x="790" y="832.5" width="40" height="30" as="geometry" />
        </mxCell>
        <mxCell id="8a59v6a5dDPZUjSK55P6-54" value="Sem" style="ellipse;whiteSpace=wrap;html=1;" vertex="1" parent="1">
          <mxGeometry x="790" y="880" width="40" height="30" as="geometry" />
        </mxCell>
        <mxCell id="8a59v6a5dDPZUjSK55P6-55" value="Year" style="ellipse;whiteSpace=wrap;html=1;" vertex="1" parent="1">
          <mxGeometry x="730" y="910" width="40" height="30" as="geometry" />
        </mxCell>
        <mxCell id="8a59v6a5dDPZUjSK55P6-111" style="edgeStyle=orthogonalEdgeStyle;rounded=0;orthogonalLoop=1;jettySize=auto;html=1;entryX=1;entryY=1;entryDx=0;entryDy=0;" edge="1" parent="1" source="8a59v6a5dDPZUjSK55P6-56" target="8a59v6a5dDPZUjSK55P6-59">
          <mxGeometry relative="1" as="geometry" />
        </mxCell>
        <mxCell id="8a59v6a5dDPZUjSK55P6-112" style="edgeStyle=orthogonalEdgeStyle;rounded=0;orthogonalLoop=1;jettySize=auto;html=1;entryX=0.5;entryY=0;entryDx=0;entryDy=0;" edge="1" parent="1" source="8a59v6a5dDPZUjSK55P6-56" target="8a59v6a5dDPZUjSK55P6-58">
          <mxGeometry relative="1" as="geometry" />
        </mxCell>
        <mxCell id="8a59v6a5dDPZUjSK55P6-56" value="CRoom" style="ellipse;whiteSpace=wrap;html=1;" vertex="1" parent="1">
          <mxGeometry x="670" y="930" width="50" height="40" as="geometry" />
        </mxCell>
        <mxCell id="8a59v6a5dDPZUjSK55P6-57" value="DaysTime" style="ellipse;whiteSpace=wrap;html=1;" vertex="1" parent="1">
          <mxGeometry x="580" y="910" width="60" height="40" as="geometry" />
        </mxCell>
        <mxCell id="8a59v6a5dDPZUjSK55P6-58" value="RoomNo" style="ellipse;whiteSpace=wrap;html=1;" vertex="1" parent="1">
          <mxGeometry x="705" y="980" width="55" height="40" as="geometry" />
        </mxCell>
        <mxCell id="8a59v6a5dDPZUjSK55P6-59" value="Bldg" style="ellipse;whiteSpace=wrap;html=1;" vertex="1" parent="1">
          <mxGeometry x="620" y="990" width="50" height="30" as="geometry" />
        </mxCell>
        <mxCell id="8a59v6a5dDPZUjSK55P6-60" value="CDesc" style="ellipse;whiteSpace=wrap;html=1;" vertex="1" parent="1">
          <mxGeometry x="140" y="910" width="50" height="40" as="geometry" />
        </mxCell>
        <mxCell id="8a59v6a5dDPZUjSK55P6-61" value="Level" style="ellipse;whiteSpace=wrap;html=1;" vertex="1" parent="1">
          <mxGeometry x="100" y="950" width="50" height="40" as="geometry" />
        </mxCell>
        <mxCell id="8a59v6a5dDPZUjSK55P6-62" value="CoName" style="ellipse;whiteSpace=wrap;html=1;fontStyle=4" vertex="1" parent="1">
          <mxGeometry x="40" y="940" width="60" height="40" as="geometry" />
        </mxCell>
        <mxCell id="8a59v6a5dDPZUjSK55P6-63" value="Creadits" style="ellipse;whiteSpace=wrap;html=1;" vertex="1" parent="1">
          <mxGeometry x="10" y="890" width="50" height="37.5" as="geometry" />
        </mxCell>
        <mxCell id="8a59v6a5dDPZUjSK55P6-64" value="CCode" style="ellipse;whiteSpace=wrap;html=1;fontStyle=4" vertex="1" parent="1">
          <mxGeometry x="10" y="850" width="40" height="30" as="geometry" />
        </mxCell>
        <mxCell id="8a59v6a5dDPZUjSK55P6-65" value="DName" style="ellipse;whiteSpace=wrap;html=1;fontStyle=4" vertex="1" parent="1">
          <mxGeometry x="5" y="420" width="50" height="30" as="geometry" />
        </mxCell>
        <mxCell id="8a59v6a5dDPZUjSK55P6-66" value="DCode" style="ellipse;whiteSpace=wrap;html=1;fontStyle=4" vertex="1" parent="1">
          <mxGeometry x="10" y="460" width="50" height="35" as="geometry" />
        </mxCell>
        <mxCell id="8a59v6a5dDPZUjSK55P6-67" value="DOffice" style="ellipse;whiteSpace=wrap;html=1;fontStyle=0" vertex="1" parent="1">
          <mxGeometry x="5" y="520" width="50" height="30" as="geometry" />
        </mxCell>
        <mxCell id="8a59v6a5dDPZUjSK55P6-68" value="DPhone" style="ellipse;whiteSpace=wrap;html=1;" vertex="1" parent="1">
          <mxGeometry x="35" y="560" width="50" height="30" as="geometry" />
        </mxCell>
        <mxCell id="8a59v6a5dDPZUjSK55P6-69" value="FName" style="ellipse;whiteSpace=wrap;html=1;direction=south;" vertex="1" parent="1">
          <mxGeometry x="520" y="380" width="54" height="34" as="geometry" />
        </mxCell>
        <mxCell id="8a59v6a5dDPZUjSK55P6-70" value="Sld" style="ellipse;whiteSpace=wrap;html=1;fontStyle=4" vertex="1" parent="1">
          <mxGeometry x="465" y="412" width="40" height="30" as="geometry" />
        </mxCell>
        <mxCell id="8a59v6a5dDPZUjSK55P6-71" value="DOB" style="ellipse;whiteSpace=wrap;html=1;" vertex="1" parent="1">
          <mxGeometry x="510" y="447.5" width="50" height="30" as="geometry" />
        </mxCell>
        <mxCell id="8a59v6a5dDPZUjSK55P6-72" value="Major" style="ellipse;whiteSpace=wrap;html=1;" vertex="1" parent="1">
          <mxGeometry x="640" y="532.5" width="40" height="30" as="geometry" />
        </mxCell>
        <mxCell id="8a59v6a5dDPZUjSK55P6-73" value="MName" style="ellipse;whiteSpace=wrap;html=1;" vertex="1" parent="1">
          <mxGeometry x="580" y="340" width="50" height="40" as="geometry" />
        </mxCell>
        <mxCell id="8a59v6a5dDPZUjSK55P6-74" value="LName" style="ellipse;whiteSpace=wrap;html=1;" vertex="1" parent="1">
          <mxGeometry x="630" y="374" width="55" height="38" as="geometry" />
        </mxCell>
        <mxCell id="8a59v6a5dDPZUjSK55P6-75" value="Addr" style="ellipse;whiteSpace=wrap;html=1;" vertex="1" parent="1">
          <mxGeometry x="640" y="460" width="40" height="30" as="geometry" />
        </mxCell>
        <mxCell id="8a59v6a5dDPZUjSK55P6-77" value="Phone" style="ellipse;whiteSpace=wrap;html=1;" vertex="1" parent="1">
          <mxGeometry x="640" y="493.75" width="40" height="30" as="geometry" />
        </mxCell>
        <mxCell id="8a59v6a5dDPZUjSK55P6-124" style="edgeStyle=orthogonalEdgeStyle;rounded=0;orthogonalLoop=1;jettySize=auto;html=1;exitX=0.5;exitY=0;exitDx=0;exitDy=0;" edge="1" parent="1" source="8a59v6a5dDPZUjSK55P6-78" target="8a59v6a5dDPZUjSK55P6-73">
          <mxGeometry relative="1" as="geometry" />
        </mxCell>
        <mxCell id="8a59v6a5dDPZUjSK55P6-125" style="edgeStyle=orthogonalEdgeStyle;rounded=0;orthogonalLoop=1;jettySize=auto;html=1;exitX=0;exitY=0;exitDx=0;exitDy=0;entryX=1;entryY=0;entryDx=0;entryDy=0;" edge="1" parent="1" source="8a59v6a5dDPZUjSK55P6-78" target="8a59v6a5dDPZUjSK55P6-69">
          <mxGeometry relative="1" as="geometry" />
        </mxCell>
        <mxCell id="8a59v6a5dDPZUjSK55P6-78" value="SName" style="ellipse;whiteSpace=wrap;html=1;" vertex="1" parent="1">
          <mxGeometry x="580" y="432" width="45" height="38" as="geometry" />
        </mxCell>
        <mxCell id="8a59v6a5dDPZUjSK55P6-79" value="Grade" style="ellipse;whiteSpace=wrap;html=1;" vertex="1" parent="1">
          <mxGeometry x="480" y="620" width="40" height="30" as="geometry" />
        </mxCell>
        <mxCell id="8a59v6a5dDPZUjSK55P6-80" value="" style="endArrow=none;html=1;rounded=0;exitX=1.018;exitY=0.756;exitDx=0;exitDy=0;exitPerimeter=0;" edge="1" parent="1" source="8a59v6a5dDPZUjSK55P6-42" target="8a59v6a5dDPZUjSK55P6-10">
          <mxGeometry width="50" height="50" relative="1" as="geometry">
            <mxPoint x="350" y="270" as="sourcePoint" />
            <mxPoint x="380" y="240" as="targetPoint" />
          </mxGeometry>
        </mxCell>
        <mxCell id="8a59v6a5dDPZUjSK55P6-89" style="edgeStyle=orthogonalEdgeStyle;rounded=0;orthogonalLoop=1;jettySize=auto;html=1;entryX=0.922;entryY=0.116;entryDx=0;entryDy=0;entryPerimeter=0;" edge="1" parent="1" source="8a59v6a5dDPZUjSK55P6-39" target="8a59v6a5dDPZUjSK55P6-4">
          <mxGeometry relative="1" as="geometry" />
        </mxCell>
        <mxCell id="8a59v6a5dDPZUjSK55P6-99" style="edgeStyle=orthogonalEdgeStyle;rounded=0;orthogonalLoop=1;jettySize=auto;html=1;entryX=0.719;entryY=0.116;entryDx=0;entryDy=0;entryPerimeter=0;" edge="1" parent="1" source="8a59v6a5dDPZUjSK55P6-12" target="8a59v6a5dDPZUjSK55P6-63">
          <mxGeometry relative="1" as="geometry" />
        </mxCell>
        <mxCell id="8a59v6a5dDPZUjSK55P6-123" style="edgeStyle=orthogonalEdgeStyle;rounded=0;orthogonalLoop=1;jettySize=auto;html=1;exitX=1;exitY=0;exitDx=0;exitDy=0;entryX=0.311;entryY=0.938;entryDx=0;entryDy=0;entryPerimeter=0;" edge="1" parent="1" source="8a59v6a5dDPZUjSK55P6-78" target="8a59v6a5dDPZUjSK55P6-74">
          <mxGeometry relative="1" as="geometry" />
        </mxCell>
        <mxCell id="8a59v6a5dDPZUjSK55P6-135" value="" style="endArrow=none;html=1;rounded=0;entryX=0;entryY=1;entryDx=0;entryDy=0;" edge="1" parent="1" target="8a59v6a5dDPZUjSK55P6-45">
          <mxGeometry width="50" height="50" relative="1" as="geometry">
            <mxPoint x="720" y="145" as="sourcePoint" />
            <mxPoint x="770" y="95" as="targetPoint" />
          </mxGeometry>
        </mxCell>
      </root>
    </mxGraphModel>
  </diagram>
</mxfile>
